Coordinates
version=1
nRows=13
nColumns=40
inDegrees=yes

Units are S.I. units (second, meters, Newtons, ...)
Angles are in degrees.

endheader
time	pelvis_tilt	pelvis_list	pelvis_rotation	pelvis_tx	pelvis_ty	pelvis_tz	hip_flexion_r	hip_adduction_r	hip_rotation_r	knee_angle_r	knee_angle_r_beta	ankle_angle_r	subtalar_angle_r	mtp_angle_r	hip_flexion_l	hip_adduction_l	hip_rotation_l	knee_angle_l	knee_angle_l_beta	ankle_angle_l	subtalar_angle_l	mtp_angle_l	lumbar_extension	lumbar_bending	lumbar_rotation	arm_flex_r	arm_add_r	arm_rot_r	elbow_flex_r	pro_sup_r	wrist_flex_r	wrist_dev_r	arm_flex_l	arm_add_l	arm_rot_l	elbow_flex_l	pro_sup_l	wrist_flex_l	wrist_dev_l
     37.52500000	     -6.86088381	     -3.46925835	     -1.73850947	      1.05818880	      0.92234413	      0.41695729	     32.62733955	     -3.74088042	    -14.27002338	     15.28901032	     15.28901032	      2.52557681	      2.88258739	     12.13325938	      1.80590175	     -3.69553572	     -9.77802240	     13.98732575	     13.98732575	     18.84732733	      1.60773678	     -4.91193601	    -11.88992314	      1.74498320	      0.88493379	    -15.56908384	    -17.30120833	     -5.42770371	     30.63785119	     46.72616937	      0.00000000	      0.00000000	      9.10799842	    -16.02547401	    -18.10581753	     93.25554440	     48.23265094	      0.00000000	      0.00000000
     37.53735714	     -6.65310077	     -3.19284205	     -1.54247719	      1.05973832	      0.92077931	      0.41892208	     31.93737828	     -3.87516782	    -14.44403484	     15.62065651	     15.62065651	      2.06066096	      2.54348654	     10.57612731	      0.74805607	     -3.64271852	    -10.72147586	     13.63450711	     13.63450711	     19.33099965	      3.52751250	     -5.29529796	    -11.87837320	      1.32752130	      0.93150975	    -17.08513771	    -17.14034830	     -5.33838872	     33.46314033	     46.54795019	      0.00000000	      0.00000000	      9.09431688	    -15.95918832	    -17.81725321	     96.15822189	     48.30410552	      0.00000000	      0.00000000
     37.54971429	     -6.59540034	     -2.89230837	     -1.22766643	      1.06129707	      0.91906201	      0.42065567	     31.44632279	     -4.11309684	    -14.43469902	     16.25548174	     16.25548174	      1.93475479	      1.94243561	      9.92360695	     -0.09070494	     -3.45123421	    -10.75128681	     13.32584618	     13.32584618	     19.73507726	      4.16187601	     -5.32420704	    -11.60056224	      0.98575927	      0.94597171	    -17.68298215	    -16.88383214	     -5.13183255	     33.89368794	     46.50092607	      0.00000000	      0.00000000	      9.56892627	    -15.63346654	    -17.73111049	     97.11771181	     48.32975029	      0.00000000	      0.00000000
     37.56207143	     -6.53059333	     -2.68767476	     -0.88487678	      1.06292415	      0.91735703	      0.42243103	     30.96642308	     -4.28076588	    -14.32539521	     17.06671668	     17.06671668	      1.86812303	      1.23365261	      9.14726649	     -0.84517096	     -3.39962502	    -10.75025372	     13.19661300	     13.19661300	     20.13616453	      4.74550200	     -5.36953134	    -11.32374596	      0.76498298	      0.88650755	    -18.06055579	    -16.64675678	     -4.95490459	     34.42066740	     46.45669935	      0.00000000	      0.00000000	      9.92170844	    -15.37433648	    -17.58937455	     98.11732673	     48.35005185	      0.00000000	      0.00000000
     37.57442857	     -6.45682752	     -2.54012264	     -0.49328595	      1.06465867	      0.91567149	      0.42423328	     30.26538915	     -4.31255337	    -14.03299884	     17.42554809	     17.42554809	      0.45213988	     -0.06672637	      4.60388870	     -1.45058161	     -3.51800890	    -11.04382316	     13.43093059	     13.43093059	     20.96908236	      5.89284813	     -4.77825763	    -11.10450577	      0.63574839	      0.76949463	    -19.10949740	    -16.86078987	     -3.27324655	     37.05332581	     46.17548952	      0.00000000	      0.00000000	      9.95080753	    -15.10411666	    -17.46290721	     99.46914956	     48.44442018	      0.00000000	      0.00000000
     37.58678571	     -6.40908804	     -2.48339092	     -0.07342974	      1.06628745	      0.91431097	      0.42595846	     29.85742812	     -4.39725251	    -13.92165947	     18.38800420	     18.38800420	      0.67235225	     -0.76258757	      4.25746904	     -2.03514554	     -3.65866789	    -10.78980308	     13.54572456	     13.54572456	     21.27142674	      6.10432230	     -4.87450878	    -10.86382887	      0.66141409	      0.69053827	    -19.01023625	    -16.62411305	     -3.15002993	     37.16620773	     46.16136115	      0.00000000	      0.00000000	     10.16216316	    -14.73183736	    -17.30453987	     99.97142698	     48.44933470	      0.00000000	      0.00000000
     37.59914286	     -6.38839138	     -2.44504857	      0.27612272	      1.06782258	      0.91306158	      0.42793090	     29.54770103	     -4.30564968	    -13.22218449	     19.28972041	     19.28972041	      0.42987095	     -2.46668204	      2.59030529	     -2.39414438	     -3.93337389	    -10.91273154	     14.06978000	     14.06978000	     21.79250758	      6.76155890	     -4.73386577	    -10.66298535	      0.64838890	      0.53972377	    -18.93081272	    -16.60344847	     -2.33290867	     37.99366825	     46.05877559	      0.00000000	      0.00000000	      9.89332193	    -14.45264071	    -17.32307170	    101.47123169	     48.51402873	      0.00000000	      0.00000000
     37.61150000	     -6.35006020	     -2.44657932	      0.63488496	      1.06930494	      0.91224849	      0.42983353	     29.32869629	     -4.29115673	    -12.89784130	     20.38653370	     20.38653370	      0.80853710	     -3.42748885	      2.02099321	     -2.72244908	     -4.20619361	    -10.63379342	     14.61589894	     14.61589894	     22.01788736	      6.76677263	     -4.80178883	    -10.50463221	      0.74497541	      0.67030722	    -18.58868679	    -16.46437433	     -2.03966552	     38.16208854	     46.03303967	      0.00000000	      0.00000000	      9.97895848	    -13.91732976	    -17.21908854	    101.89146009	     48.52407466	      0.00000000	      0.00000000
     37.62385714	     -6.30793557	     -2.55545533	      0.97439982	      1.07064331	      0.91179510	      0.43192415	     29.09958411	     -4.08963616	    -12.43157100	     21.34654180	     21.34654180	      1.16388860	     -4.70887032	      1.46323631	     -2.85563840	     -4.66179411	    -10.41545280	     15.50505789	     15.50505789	     22.23182627	      6.74980593	     -4.94078077	    -10.40712669	      0.95485069	      0.74419358	    -18.03870114	    -16.38972957	     -1.63945723	     38.43958228	     45.99777838	      0.00000000	      0.00000000	      9.84633060	    -13.44038439	    -17.11830884	    102.36978542	     48.53665441	      0.00000000	      0.00000000
     37.63621429	     -6.24078283	     -2.73045067	      1.28059409	      1.07195020	      0.91180791	      0.43418271	     28.80494355	     -3.78708899	    -12.01838064	     22.15063805	     22.15063805	      1.57584110	     -5.92725256	      0.97605958	     -2.87407559	     -5.24674662	    -10.24918033	     16.64107144	     16.64107144	     22.32786168	      6.74710588	     -5.16907255	    -10.35264776	      1.22872750	      0.79038361	    -17.26385492	    -16.38813890	     -1.11512466	     38.75479619	     45.95554931	      0.00000000	      0.00000000	      9.53614235	    -12.99826680	    -17.08067848	    102.72470911	     48.55174245	      0.00000000	      0.00000000
     37.64857143	     -6.12151585	     -2.92680183	      1.55604219	      1.07319384	      0.91227821	      0.43656507	     28.42081466	     -3.46003275	    -11.76009748	     22.84371559	     22.84371559	      2.10966713	     -6.85404288	      0.64001141	     -2.82085113	     -5.88189066	    -10.03934886	     17.96944667	     17.96944667	     22.24598729	      6.59037832	     -5.51158585	    -10.40534549	      1.52365480	      0.89682901	    -16.33351340	    -16.40779640	     -0.68298812	     39.07189626	     45.92165718	      0.00000000	      0.00000000	      9.21061320	    -12.61110392	    -17.03927653	    102.85113605	     48.55882037	      0.00000000	      0.00000000
     37.66092857	     -5.84469108	     -3.01504935	      1.73250596	      1.07465656	      0.91345554	      0.43902676	     27.75755817	     -3.22686296	    -11.63976698	     23.32815270	     23.32815270	      2.76052666	     -7.23815062	      0.37526850	     -3.07974562	     -6.35455524	     -9.82205770	     19.03581748	     19.03581748	     21.93162068	      6.35773543	     -5.67587227	    -10.63386720	      1.69148752	      1.17773356	    -15.28472316	    -16.32564035	     -0.56020262	     39.43901205	     45.90694644	      0.00000000	      0.00000000	      8.77633418	    -12.07112348	    -16.80397717	    102.69729591	     48.54009194	      0.00000000	      0.00000000
     37.67328571	     -5.83059098	     -3.35163489	      2.03668621	      1.07562820	      0.91428229	      0.44166322	     27.32211335	     -2.72728941	    -11.64628601	     23.63768933	     23.63768933	      3.26564694	     -8.05666650	      0.28890472	     -2.36367848	     -7.27790504	     -9.48815099	     21.26574506	     21.26574506	     21.56402405	      5.97691677	     -6.53332837	    -10.57589234	      2.10523894	      1.15870983	    -14.13378864	    -16.48883338	     -0.22014256	     39.89801623	     45.87591918	      0.00000000	      0.00000000	      8.31538781	    -11.88219884	    -16.77388090	    102.52789117	     48.53891413	      0.00000000	      0.00000000
